<svg viewBox="0 0 370 370" fill="none">
<path d="M109.272 206.527C120.936 248.593 164.493 273.239 206.559 261.574M164.319 109.24C206.385 97.5762 249.942 122.222 261.606 164.288" stroke="inherit" stroke-width="20"/>
<path d="M117.54 144.945C95.1933 182.445 107.477 230.96 144.977 253.307M225.901 117.508C263.401 139.855 275.685 188.37 253.338 225.87" stroke="inherit" stroke-width="20"/>
<path d="M113.7 95.6304C64.3422 135.008 56.2523 206.943 95.6303 256.3M274.37 113.7C313.748 163.057 305.658 234.992 256.3 274.37" stroke="inherit" stroke-width="25"/>
<path d="M200.276 72.1264C137.852 63.6799 80.3993 107.438 71.9528 169.862M298.012 200.45C289.566 262.875 232.113 306.633 169.689 298.186" stroke="inherit" stroke-width="25"/>
</svg>
